<svg width="24" height="24" viewBox="0 0 24 24" fill="none" xmlns="http://www.w3.org/2000/svg">
<path fill-rule="evenodd" clip-rule="evenodd" d="M0.646447 0.646447C0.841709 0.451184 1.15829 0.451184 1.35355 0.646447L12 11.2929L22.6464 0.646447C22.8417 0.451184 23.1583 0.451184 23.3536 0.646447C23.5488 0.841709 23.5488 1.15829 23.3536 1.35355L12.7071 12L23.3536 22.6464C23.5488 22.8417 23.5488 23.1583 23.3536 23.3536C23.1583 23.5488 22.8417 23.5488 22.6464 23.3536L12 12.7071L1.35355 23.3536C1.15829 23.5488 0.841709 23.5488 0.646447 23.3536C0.451184 23.1583 0.451184 22.8417 0.646447 22.6464L11.2929 12L0.646447 1.35355C0.451184 1.15829 0.451184 0.841709 0.646447 0.646447Z" fill="#FE7865"/>
</svg>
