<svg width="23" height="24" viewBox="0 0 23 24" fill="none" xmlns="http://www.w3.org/2000/svg">
<path d="M4.39635 6.62432C4.31179 5.42623 4.57753 4.24606 5.28114 3.29684C5.89115 2.43632 6.68536 1.96636 7.64264 1.69172C8.44893 1.4525 8.9774 1.74561 9.20992 2.64204C9.54211 3.98224 10.0162 5.3225 10.1884 6.73361C10.2427 7.35485 9.84108 8.23322 9.40623 8.6856C8.31608 9.75888 8.54257 10.5399 9.37 12.1643C9.62669 12.6881 10.0344 13.5934 10.8286 14.7919C11.656 15.9992 12.0939 16.6472 13.1569 16.0975C14.3376 15.5035 15.1983 15.8855 16.0891 16.8444C16.6931 17.5369 17.3574 18.1318 17.9614 18.8243C18.8341 19.8542 18.7949 20.5641 18.1124 21.2915C16.8833 22.6309 14.854 23.0736 13.3441 22.1766C12.5106 21.6881 11.6802 21.0487 11.0188 20.303C8.10471 16.9825 6.00291 13.1212 4.73759 8.76321C4.53526 8.02654 4.44165 7.28104 4.39635 6.62432Z" stroke="#FE7865" stroke-width="2" stroke-miterlimit="10"/>
</svg>
